S5_12_1.mot
version=1
nRows=16
nColumns=39
inDegrees=no
endheader
time	sternoclavicular_r2	sternoclavicular_r3	unrotscap_r3	unrotscap_r2	acromioclavicular_r2	acromioclavicular_r3	acromioclavicular_r1	unrothum_r1	unrothum_r3	unrothum_r2	elv_angle	shoulder_elv	shoulder1_r2	shoulder_rot	elbow_flexion	pro_sup	deviation	flexion	cmc_abduction	cmc_flexion	mp_flexion	ip_flexion	mcp2_flexion	mcp2_abduction	pm2_flexion	md2_flexion	mcp3_flexion	mcp3_abduction	pm3_flexion	md3_flexion	mcp4_flexion	mcp4_abduction	pm4_flexion	md4_flexion	mcp5_flexion	mcp5_abduction	pm5_flexion	md5_flexion
1.58000000	-0.04967895	-0.00531341	0.04250244	0.10500039	0.07499283	0.15095675	0.04485481	0.14378065	0.08461280	0.09810542	0.13236272	-0.04443391	0.13174661	0.13174661	2.21729206	1.28806072	0.00000000	0.00000000	0.00000000	0.00000000	0.00000000	0.00000000	0.00000000	0.00000000	0.00000000	0.00000000	0.00000000	0.00000000	0.00000000	0.00000000	0.00000000	0.00000000	0.00000000	0.00000000	0.00000000	0.00000000	0.00000000	0.00000000
1.58500000	-0.05140033	-0.00309250	0.04432965	0.10517276	0.07455394	0.15399118	0.04466280	0.14975035	0.08424222	0.09647161	0.13179978	-0.04674467	0.13143619	0.13143619	2.22121471	1.28806842	0.00000000	0.00000000	0.00000000	0.00000000	0.00000000	0.00000000	0.00000000	0.00000000	0.00000000	0.00000000	0.00000000	0.00000000	0.00000000	0.00000000	0.00000000	0.00000000	0.00000000	0.00000000	0.00000000	0.00000000	0.00000000	0.00000000
1.59000000	-0.05311355	-0.00089926	0.04616206	0.10533630	0.07410722	0.15701994	0.04446018	0.15570369	0.08387587	0.09483267	0.13122731	-0.04905548	0.13112844	0.13112844	2.22507635	1.28807580	0.00000000	0.00000000	0.00000000	0.00000000	0.00000000	0.00000000	0.00000000	0.00000000	0.00000000	0.00000000	0.00000000	0.00000000	0.00000000	0.00000000	0.00000000	0.00000000	0.00000000	0.00000000	0.00000000	0.00000000	0.00000000	0.00000000
1.59500000	-0.05481836	0.00126519	0.04799931	0.10549127	0.07365327	0.16004144	0.04424637	0.16163808	0.08351334	0.09318966	0.13064570	-0.05136595	0.13082356	0.13082356	2.22887945	1.28808287	0.00000000	0.00000000	0.00000000	0.00000000	0.00000000	0.00000000	0.00000000	0.00000000	0.00000000	0.00000000	0.00000000	0.00000000	0.00000000	0.00000000	0.00000000	0.00000000	0.00000000	0.00000000	0.00000000	0.00000000	0.00000000	0.00000000
1.60000000	-0.05651454	0.00339982	0.04984106	0.10563800	0.07319272	0.16305415	0.04402078	0.16755103	0.08315418	0.09154361	0.13005537	-0.05367573	0.13052174	0.13052174	2.23262642	1.28808964	0.00000000	0.00000000	0.00000000	0.00000000	0.00000000	0.00000000	0.00000000	0.00000000	0.00000000	0.00000000	0.00000000	0.00000000	0.00000000	0.00000000	0.00000000	0.00000000	0.00000000	0.00000000	0.00000000	0.00000000	0.00000000	0.00000000
1.60500000	-0.05820190	0.00550366	0.05168699	0.10577680	0.07272622	0.16605657	0.04378284	0.17344019	0.08279794	0.08989557	0.12945677	-0.05598448	0.13022317	0.13022317	2.23631961	1.28809612	0.00000000	0.00000000	0.00000000	0.00000000	0.00000000	0.00000000	0.00000000	0.00000000	0.00000000	0.00000000	0.00000000	0.00000000	0.00000000	0.00000000	0.00000000	0.00000000	0.00000000	0.00000000	0.00000000	0.00000000	0.00000000	0.00000000
1.61000000	-0.05988029	0.00757584	0.05353681	0.10590803	0.07225441	0.16904728	0.04353200	0.17930331	0.08244413	0.08824657	0.12885032	-0.05829191	0.12992806	0.12992806	2.23996128	1.28810231	0.00000000	0.00000000	0.00000000	0.00000000	0.00000000	0.00000000	0.00000000	0.00000000	0.00000000	0.00000000	0.00000000	0.00000000	0.00000000	0.00000000	0.00000000	0.00000000	0.00000000	0.00000000	0.00000000	0.00000000	0.00000000	0.00000000
1.61500000	-0.06154959	0.00961555	0.05539022	0.10603207	0.07177796	0.17202490	0.04326770	0.18513823	0.08209227	0.08659763	0.12823650	-0.06059775	0.12963658	0.12963658	2.24355364	1.28810823	0.00000000	0.00000000	0.00000000	0.00000000	0.00000000	0.00000000	0.00000000	0.00000000	0.00000000	0.00000000	0.00000000	0.00000000	0.00000000	0.00000000	0.00000000	0.00000000	0.00000000	0.00000000	0.00000000	0.00000000	0.00000000	0.00000000
1.62000000	-0.06320970	0.01162203	0.05724699	0.10614932	0.07129756	0.17498811	0.04298943	0.19094294	0.08174186	0.08494975	0.12761575	-0.06290178	0.12934894	0.12934894	2.24709878	1.28811388	0.00000000	0.00000000	0.00000000	0.00000000	0.00000000	0.00000000	0.00000000	0.00000000	0.00000000	0.00000000	0.00000000	0.00000000	0.00000000	0.00000000	0.00000000	0.00000000	0.00000000	0.00000000	0.00000000	0.00000000	0.00000000	0.00000000
1.62500000	-0.06486057	0.01359462	0.05910689	0.10626018	0.07081387	0.17793568	0.04269665	0.19671554	0.08139237	0.08330392	0.12698856	-0.06520381	0.12906531	0.12906531	2.25059873	1.28811928	0.00000000	0.00000000	0.00000000	0.00000000	0.00000000	0.00000000	0.00000000	0.00000000	0.00000000	0.00000000	0.00000000	0.00000000	0.00000000	0.00000000	0.00000000	0.00000000	0.00000000	0.00000000	0.00000000	0.00000000	0.00000000	0.00000000
1.63000000	-0.06650214	0.01553271	0.06096973	0.10636509	0.07032758	0.18086641	0.04238887	0.20245424	0.08104330	0.08166111	0.12635538	-0.06750366	0.12878587	0.12878587	2.25405544	1.28812443	0.00000000	0.00000000	0.00000000	0.00000000	0.00000000	0.00000000	0.00000000	0.00000000	0.00000000	0.00000000	0.00000000	0.00000000	0.00000000	0.00000000	0.00000000	0.00000000	0.00000000	0.00000000	0.00000000	0.00000000	0.00000000	0.00000000
1.63500000	-0.06813442	0.01743573	0.06283533	0.10646449	0.06983937	0.18377919	0.04206559	0.20815738	0.08069410	0.08002225	0.12571669	-0.06980122	0.12851080	0.12851080	2.25747076	1.28812936	0.00000000	0.00000000	0.00000000	0.00000000	0.00000000	0.00000000	0.00000000	0.00000000	0.00000000	0.00000000	0.00000000	0.00000000	0.00000000	0.00000000	0.00000000	0.00000000	0.00000000	0.00000000	0.00000000	0.00000000	0.00000000	0.00000000
1.64000000	-0.06975740	0.01930320	0.06470358	0.10655882	0.06934992	0.18667299	0.04172633	0.21382342	0.08034424	0.07838826	0.12507297	-0.07209638	0.12824026	0.12824026	2.26084643	1.28813405	0.00000000	0.00000000	0.00000000	0.00000000	0.00000000	0.00000000	0.00000000	0.00000000	0.00000000	0.00000000	0.00000000	0.00000000	0.00000000	0.00000000	0.00000000	0.00000000	0.00000000	0.00000000	0.00000000	0.00000000	0.00000000	0.00000000
1.64500000	-0.07137113	0.02113466	0.06657436	0.10664856	0.06885989	0.18954682	0.04137061	0.21945093	0.07999319	0.07676003	0.12442467	-0.07438907	0.12797441	0.12797441	2.26418413	1.28813854	0.00000000	0.00000000	0.00000000	0.00000000	0.00000000	0.00000000	0.00000000	0.00000000	0.00000000	0.00000000	0.00000000	0.00000000	0.00000000	0.00000000	0.00000000	0.00000000	0.00000000	0.00000000	0.00000000	0.00000000	0.00000000	0.00000000
1.65000000	-0.07297564	0.02292974	0.06844760	0.10673416	0.06836995	0.19239979	0.04099799	0.22503862	0.07964040	0.07513842	0.12377226	-0.07667924	0.12771340	0.12771340	2.26748542	1.28814282	0.00000000	0.00000000	0.00000000	0.00000000	0.00000000	0.00000000	0.00000000	0.00000000	0.00000000	0.00000000	0.00000000	0.00000000	0.00000000	0.00000000	0.00000000	0.00000000	0.00000000	0.00000000	0.00000000	0.00000000	0.00000000	0.00000000
1.65500000	-0.07457102	0.02468809	0.07032326	0.10681610	0.06788075	0.19523107	0.04060803	0.23058530	0.07928533	0.07352424	0.12311619	-0.07896689	0.12745738	0.12745738	2.27075177	1.28814691	0.00000000	0.00000000	0.00000000	0.00000000	0.00000000	0.00000000	0.00000000	0.00000000	0.00000000	0.00000000	0.00000000	0.00000000	0.00000000	0.00000000	0.00000000	0.00000000	0.00000000	0.00000000	0.00000000	0.00000000	0.00000000	0.00000000
